<?xml version="1.0" encoding="UTF-8"?>
<svg width="1024px" height="3089px" viewBox="0 0 1024 3089" version="1.1" xmlns="http://www.w3.org/2000/svg" xmlns:xlink="http://www.w3.org/1999/xlink">
    <!-- Generator: Sketch 55 (78076) - https://sketchapp.com -->
    <title>Logo/Normal</title>
    <desc>Created with Sketch.</desc>
    <defs>
        <path d="M228.567652,25.781517 C227.431621,25.781517 226.364457,25.5663629 225.366126,25.1360482 C224.367796,24.7057335 223.492836,24.1147768 222.74122,23.3631605 C221.989604,22.6115442 221.398647,21.7365841 220.968332,20.738254 C220.538018,19.7399239 220.322863,18.6727594 220.322863,17.5367286 L220.322863,12.063153 L218.033601,12.063153 L218.033601,7.38135249 L220.322863,7.38135249 L220.322863,0.0144016896 L225.004664,0.0144016896 L225.004664,7.38135249 L232.13064,7.38135249 L232.13064,12.063153 L225.004664,12.063153 L225.004664,17.5367286 C225.004664,18.0301561 225.096463,18.4920203 225.280064,18.922335 C225.463665,19.3526497 225.716112,19.7284522 226.037414,20.0497539 C226.358716,20.3710555 226.737387,20.6263717 227.173439,20.8157102 C227.609491,21.0050487 228.074224,21.0997165 228.567652,21.0997165 L232.13064,21.0997165 L232.13064,25.781517 L228.567652,25.781517 Z" id="path-1"></path>
        <filter x="-14.2%" y="-3.9%" width="128.4%" height="115.5%" filterUnits="objectBoundingBox" id="filter-2">
            <feOffset dx="0" dy="1" in="SourceAlpha" result="shadowOffsetOuter1"></feOffset>
            <feGaussianBlur stdDeviation="0.5" in="shadowOffsetOuter1" result="shadowBlurOuter1"></feGaussianBlur>
            <feColorMatrix values="0 0 0 0 0   0 0 0 0 0   0 0 0 0 0  0 0 0 0.215308129 0" type="matrix" in="shadowBlurOuter1"></feColorMatrix>
        </filter>
        <path d="M253.215955,16.4007035 C253.215955,17.8465609 252.969244,19.1661728 252.475817,20.3595789 C251.982389,21.552985 251.311109,22.5771186 250.461954,23.4320105 C249.6128,24.2869024 248.617353,24.9495771 247.475585,25.4200545 C246.333817,25.8905319 245.108873,26.125767 243.800716,26.125767 C242.504034,26.125767 241.284828,25.8847944 240.143059,25.402842 C239.001291,24.9208895 238.002976,24.2496086 237.148084,23.3889792 C236.293192,22.5283498 235.619043,21.5042162 235.125615,20.3165477 C234.632188,19.1288791 234.385477,17.8236108 234.385477,16.4007035 L234.385477,0.0144016896 L239.101703,0.0144016896 L239.101703,8.62065263 C239.354154,8.29935099 239.661107,8.01247883 240.022572,7.76002754 C240.384036,7.50757625 240.774182,7.30102829 241.193022,7.14037747 C241.611862,6.97972665 242.045039,6.85637162 242.492566,6.77030868 C242.940093,6.68424574 243.376139,6.64121491 243.800716,6.64121491 C245.108873,6.64121491 246.333817,6.88505625 247.475585,7.37274624 C248.617353,7.86043624 249.6128,8.54032326 250.461954,9.41242772 C251.311109,10.2845322 251.982389,11.3144032 252.475817,12.5020718 C252.969244,13.6897404 253.215955,14.9892713 253.215955,16.4007035 Z M248.482517,16.4007035 C248.482517,15.6892498 248.359161,15.0265751 248.112448,14.4126595 C247.865734,13.7987439 247.530094,13.2680304 247.105516,12.8205031 C246.680939,12.3729758 246.18465,12.0229918 245.616635,11.7705405 C245.04862,11.5180892 244.443319,11.3918654 243.800716,11.3918654 C243.158113,11.3918654 242.552812,11.5324328 241.984797,11.8135717 C241.416782,12.0947107 240.920493,12.4676445 240.495916,12.9323844 C240.071338,13.3971242 239.738567,13.9307064 239.497591,14.533147 C239.256614,15.1355876 239.136128,15.7581002 239.136128,16.4007035 C239.136128,17.1121571 239.256614,17.7719631 239.497591,18.3801412 C239.738567,18.9883193 240.071338,19.5161641 240.495916,19.9636914 C240.920493,20.4112187 241.416782,20.7640714 241.984797,21.0222602 C242.552812,21.2804491 243.158113,21.4095415 243.800716,21.4095415 C244.443319,21.4095415 245.04862,21.2804491 245.616635,21.0222602 C246.18465,20.7640714 246.680939,20.4112187 247.105516,19.9636914 C247.530094,19.5161641 247.865734,18.9883193 248.112448,18.3801412 C248.359161,17.7719631 248.482517,17.1121571 248.482517,16.4007035 Z" id="path-3"></path>
        <filter x="-10.6%" y="-3.8%" width="121.2%" height="115.3%" filterUnits="objectBoundingBox" id="filter-4">
            <feOffset dx="0" dy="1" in="SourceAlpha" result="shadowOffsetOuter1"></feOffset>
            <feGaussianBlur stdDeviation="0.5" in="shadowOffsetOuter1" result="shadowBlurOuter1"></feGaussianBlur>
            <feColorMatrix values="0 0 0 0 0   0 0 0 0 0   0 0 0 0 0  0 0 0 0.215308129 0" type="matrix" in="shadowBlurOuter1"></feColorMatrix>
        </filter>
        <path d="M18.8304771,25.7671153 L17.6944519,25.7671153 L15.8699267,23.2368775 C15.4223994,23.6385046 14.9490604,24.0143071 14.4498953,24.3642964 C13.9507303,24.7142857 13.4257542,25.0183702 12.8749514,25.276559 C12.3241486,25.5347478 11.7590104,25.7384271 11.17952,25.8876028 C10.6000295,26.0367786 10.0119416,26.1113654 9.41523853,26.1113654 C8.1185569,26.1113654 6.89935021,25.867524 5.75758188,25.379834 C4.61581355,24.892144 3.61749842,24.2151257 2.76260655,23.3487588 C1.90771468,22.4823919 1.2335651,21.4553895 0.740137581,20.267721 C0.24671006,19.0800524 0,17.7862589 0,16.3863018 C0,14.9978197 0.24671006,13.706895 0.740137581,12.5134889 C1.2335651,11.3200828 1.90771468,10.287343 2.76260655,9.41523853 C3.61749842,8.54313407 4.61581355,7.86037833 5.75758188,7.36695081 C6.89935021,6.87352328 8.1185569,6.62681322 9.41523853,6.62681322 C9.82834064,6.62681322 10.2557802,6.66123788 10.6975699,6.73008824 C11.1393597,6.79893859 11.5696679,6.91081873 11.9885076,7.06573202 C12.4073472,7.22064531 12.8003621,7.42432455 13.1675639,7.67677584 C13.5347658,7.92922713 13.8445878,8.23904906 14.097039,8.60625094 L14.097039,0 L18.8304771,0 L18.8304771,25.7671153 Z M14.097039,16.3863018 C14.097039,15.7436985 13.973684,15.1211859 13.7269703,14.5187453 C13.4802565,13.9163048 13.1446161,13.3827225 12.7200389,12.9179827 C12.2954617,12.4532428 11.7991729,12.080309 11.2311575,11.79917 C10.6631421,11.5180311 10.0578418,11.3774637 9.41523853,11.3774637 C8.77263525,11.3774637 8.16733498,11.4922126 7.59931958,11.7217138 C7.03130418,11.951215 6.53788406,12.2811179 6.11904442,12.7114326 C5.70020478,13.1417473 5.37030179,13.6667234 5.12932556,14.2863766 C4.88834933,14.9060297 4.76786302,15.6059978 4.76786302,16.3863018 C4.76786302,17.0633302 4.88834933,17.7059239 5.12932556,18.314102 C5.37030179,18.9222801 5.70020478,19.4558623 6.11904442,19.9148647 C6.53788406,20.373867 7.03130418,20.7353259 7.59931958,20.9992523 C8.16733498,21.2631786 8.77263525,21.3951398 9.41523853,21.3951398 C10.0578418,21.3951398 10.6631421,21.2545725 11.2311575,20.9734335 C11.7991729,20.6922946 12.2954617,20.3193608 12.7200389,19.8546209 C13.1446161,19.389881 13.4802565,18.8562988 13.7269703,18.2538582 C13.973684,17.6514177 14.097039,17.0289051 14.097039,16.3863018 Z" id="path-5"></path>
        <path d="M5.88667564,2.92612532 C5.88667564,3.33922743 5.81208888,3.72650485 5.66291312,4.0879692 C5.51373736,4.44943354 5.3071894,4.7621242 5.04326305,5.02605055 C4.7793367,5.2899769 4.46951477,5.49939358 4.11378795,5.65430687 C3.75806113,5.80922016 3.37365243,5.88667564 2.96055032,5.88667564 C2.55892327,5.88667564 2.1773833,5.80922016 1.81591895,5.65430687 C1.4544546,5.49939358 1.13889522,5.2899769 0.869231345,5.02605055 C0.599567467,4.7621242 0.387282067,4.44943354 0.232368775,4.0879692 C0.0774554839,3.72650485 0,3.33922743 0,2.92612532 C0,2.52449827 0.0774554839,2.14582701 0.232368775,1.7901002 C0.387282067,1.43437338 0.599567467,1.12455144 0.869231345,0.860625094 C1.13889522,0.596698746 1.4544546,0.387282067 1.81591895,0.232368775 C2.1773833,0.0774554839 2.55892327,0 2.96055032,0 C3.37365243,0 3.75806113,0.0774554839 4.11378795,0.232368775 C4.46951477,0.387282067 4.7793367,0.596698746 5.04326305,0.860625094 C5.3071894,1.12455144 5.51373736,1.43437338 5.66291312,1.7901002 C5.81208888,2.14582701 5.88667564,2.52449827 5.88667564,2.92612532 Z" id="path-7"></path>
        <filter x="-34.0%" y="-17.0%" width="168.0%" height="168.0%" filterUnits="objectBoundingBox" id="filter-9">
            <feOffset dx="0" dy="1" in="SourceAlpha" result="shadowOffsetOuter1"></feOffset>
            <feGaussianBlur stdDeviation="0.5" in="shadowOffsetOuter1" result="shadowBlurOuter1"></feGaussianBlur>
            <feColorMatrix values="0 0 0 0 0   0 0 0 0 0   0 0 0 0 0  0 0 0 0.223940122 0" type="matrix" in="shadowBlurOuter1"></feColorMatrix>
        </filter>
    </defs>
    <g id="Page-1" stroke="none" stroke-width="1" fill="none" fill-rule="evenodd">
        <g id="Desktop-Copy-11" transform="translate(0.000000, -35.000000)">
            <g id="Logo/Normal" transform="translate(-157.000000, 35.000000)">
                <g id="Group-7" transform="translate(0.931109, 595.000000)">
                    <polygon id="Path-36" fill="#FF7171" points="1356.30734 -5.68434189e-14 949.068891 407.22826 1089.06889 807 1761.05082 988"></polygon>
                    <polygon id="Path-37" fill="#719EFF" points="25.0688911 941 323.068891 1197 151.199531 1822 0 1822"></polygon>
                    <polygon id="Path-38" fill="#FFCF71" points="1275.05985 1880 1052.06889 2107 1180.06889 2493.67956 1681.05082 2442.80579"></polygon>
                </g>
                <g id="Path" fill-rule="nonzero">
                    <use fill="black" fill-opacity="1" filter="url(#filter-2)" xlink:href="#path-1"></use>
                    <use fill="#252525" xlink:href="#path-1"></use>
                </g>
                <g id="Combined-Shape" fill-rule="nonzero">
                    <use fill="black" fill-opacity="1" filter="url(#filter-4)" xlink:href="#path-3"></use>
                    <use fill="#252525" xlink:href="#path-3"></use>
                </g>
                <g id="Group-4" transform="translate(254.799505, 0.014402)">
                    <g id="Group">
                        <mask id="mask-6" fill="white">
                            <use xlink:href="#path-5"></use>
                        </mask>
                        <use id="Mask" fill="#FFB671" fill-rule="nonzero" xlink:href="#path-5"></use>
                        <g mask="url(#mask-6)">
                            <g transform="translate(-4.625101, -1.555200)">
                                <polygon id="Path" fill="#FF7171" points="16.0704018 2.59200028 8.58230802 26.1792029 2.59200028 11.1114352"></polygon>
                                <polygon id="Path-Copy" fill="#FF8787" transform="translate(36.378273, 35.786311) rotate(-48.000000) translate(-36.378273, -35.786311) " points="43.1174733 23.9927102 35.6293795 47.5799127 29.6390718 32.5121451"></polygon>
                                <polygon id="Path-2" fill="#FFCF71" points="18.9216021 33.6960037 11.6640013 16.3434687 0 24.6209626"></polygon>
                                <polygon id="Path-3" fill="#7971FF" points="29.4427285 24.8224527 21.4202116 20.9043839 16.8480018 18.6713898 26.9088312 2.59200028"></polygon>
                                <polygon id="Path-4" fill="#DA71FF" points="16.8480018 7.25760079 18.9216021 15.3572006 24.0259808 7.25760079"></polygon>
                                <polygon id="Path-5" fill="#719EFF" points="15.3009935 22.0320024 29.6503138 24.882251 30.5856033 33.6960037 16.8480018 28.9240128 14.0575515 22.3590741"></polygon>
                                <polygon id="Path-6" fill="#FF9D71" points="11.6640013 16.3434687 16.8480018 18.6713898 18.9216021 15.3572006 13.7088694 9.84960108"></polygon>
                                <polygon id="Path-7" fill="#FFCF71" points="18.144002 1.72015157 18.7221395 7.25760079 25.6608028 2.99324137 23.0616442 0"></polygon>
                                <polygon id="Path-7-Copy" fill="#FFD787" points="28.7712031 19.3457535 29.3995658 24.8832027 36.288004 20.6188433 33.6888454 17.6256019"></polygon>
                            </g>
                        </g>
                    </g>
                    <g id="Group" transform="translate(22.307402, 20.323915)">
                        <mask id="mask-8" fill="white">
                            <use xlink:href="#path-7"></use>
                        </mask>
                        <g id="Mask" fill-rule="nonzero">
                            <use fill="black" fill-opacity="1" filter="url(#filter-9)" xlink:href="#path-7"></use>
                            <use fill="#FFB671" xlink:href="#path-7"></use>
                        </g>
                        <g mask="url(#mask-8)">
                            <g transform="translate(-26.932503, -21.879115)">
                                <polygon id="Path" fill="#FF8787" points="16.0704018 2.59200028 8.58230802 26.1792029 2.59200028 11.1114352"></polygon>
                                <polygon id="Path-Copy" fill="#FF7171" transform="translate(36.378273, 35.786311) rotate(-48.000000) translate(-36.378273, -35.786311) " points="43.1174733 23.9927102 35.6293795 47.5799127 29.6390718 32.5121451"></polygon>
                                <polygon id="Path-2" fill="#FFD787" points="18.9216021 33.6960037 11.6640013 16.3434687 0 24.6209626"></polygon>
                                <polygon id="Path-3" fill="#7971FF" points="29.4427285 24.8224527 16.8480018 18.6713898 26.9088312 2.59200028"></polygon>
                                <polygon id="Path-4" fill="#E087FF" points="16.8480018 7.25760079 18.9216021 15.3572006 24.0259808 7.25760079"></polygon>
                                <polygon id="Path-5" fill="#719EFF" points="15.3009935 22.0320024 29.4427285 24.8224527 30.5856033 33.6960037 16.8480018 28.9240128 14.0575515 22.3590741"></polygon>
                                <polygon id="Path-6" fill="#FFAC87" points="11.6640013 16.3434687 16.8480018 18.6713898 18.9216021 15.3572006 13.7088694 9.84960108"></polygon>
                                <polygon id="Path-7" fill="#FFD787" points="18.144002 1.72015157 18.7221395 7.25760079 25.6608028 2.99324137 23.0616442 0"></polygon>
                                <polygon id="Path-7-Copy" fill="#FFCF71" points="28.7712031 19.3457535 29.4427285 24.8224527 36.288004 20.6188433 33.6888454 17.6256019"></polygon>
                            </g>
                        </g>
                    </g>
                </g>
                <text id="studio" font-family="Righteous-Regular, Righteous" font-size="13.9968015" font-weight="normal" fill="#7971FF">
                    <tspan x="286.462408" y="25.937603">studio</tspan>
                </text>
            </g>
        </g>
    </g>
</svg>