<?xml version="1.0" encoding="UTF-8"?>
<svg width="375px" height="825px" viewBox="0 0 375 825" version="1.1" xmlns="http://www.w3.org/2000/svg" xmlns:xlink="http://www.w3.org/1999/xlink">
    <!-- Generator: Sketch 55 (78076) - https://sketchapp.com -->
    <title>Group 6</title>
    <desc>Created with Sketch.</desc>
    <g id="Page-1" stroke="none" stroke-width="1" fill="none" fill-rule="evenodd">
        <g id="iPhone-XS-Copy-4">
            <g id="Group-6" transform="translate(-396.000000, -2.000000)">
                <g transform="translate(0.656863, 0.236878)">
                    <polygon id="Path-18" fill="#FF7171" points="397.343137 0 457.483969 635.656278 330.866321 871.802444 0 802.382636"></polygon>
                    <polygon id="Path-19" fill="#FF9D71" points="457.483969 635.656278 667.203507 362.091448 522.343137 1.76312155 395.343137 2.96623037e-13"></polygon>
                    <polygon id="Path-21" fill="#FFCF71" points="667.203507 362.091448 1095.34314 671.609807 770.126541 1.76312155 522.343137 1.76312155"></polygon>
                    <polygon id="Path-23" fill="#7971FF" points="666.503576 362.091448 457.483969 631.857332 343.030109 825.926018 591.775412 825.926018 770.126541 546.516846"></polygon>
                    <polygon id="Path-20" fill="#DA71FF" points="904.437668 799.816489 666.503576 362.091448 835.222738 87.7631215 1134.78789 825.926018"></polygon>
                    <path d="M423.343137,686.221432 L770.126541,546.516846 L921.921392,825.926018 L591.775412,825.926018 C418.339462,825.926018 331.621487,825.926018 331.621487,825.926018 C331.621487,825.926018 362.19537,779.357823 423.343137,686.221432 Z" id="Path-22" fill="#719EFF"></path>
                </g>
            </g>
        </g>
    </g>
</svg>