<?xml version="1.0" encoding="UTF-8"?>
<svg width="59px" height="79px" viewBox="0 0 59 79" version="1.1" xmlns="http://www.w3.org/2000/svg" xmlns:xlink="http://www.w3.org/1999/xlink">
    <!-- Generator: Sketch 55 (78076) - https://sketchapp.com -->
    <title>Group 4</title>
    <desc>Created with Sketch.</desc>
    <defs>
        <filter x="-23.5%" y="-16.9%" width="147.1%" height="133.8%" filterUnits="objectBoundingBox" id="filter-1">
            <feOffset dx="0" dy="2" in="SourceAlpha" result="shadowOffsetOuter1"></feOffset>
            <feGaussianBlur stdDeviation="2" in="shadowOffsetOuter1" result="shadowBlurOuter1"></feGaussianBlur>
            <feColorMatrix values="0 0 0 0 0.14489923   0 0 0 0 0.14489923   0 0 0 0 0.14489923  0 0 0 0.38 0" type="matrix" in="shadowBlurOuter1" result="shadowMatrixOuter1"></feColorMatrix>
            <feMerge>
                <feMergeNode in="shadowMatrixOuter1"></feMergeNode>
                <feMergeNode in="SourceGraphic"></feMergeNode>
            </feMerge>
        </filter>
        <path d="M50.7543878,69.8823871 L47.6924229,69.8823871 L42.7747217,63.0201887 C41.5684871,64.109432 40.2926812,65.1286372 38.9472656,66.0778349 C37.6018501,67.0270326 36.1868653,67.851733 34.7022688,68.5519609 C33.2176724,69.2521887 31.6944374,69.8045823 30.1325182,70.2091584 C28.570599,70.6137345 26.9855068,70.8160195 25.3771939,70.8160195 C21.8822064,70.8160195 18.5960396,70.1547031 15.5185948,68.8320506 C12.4411501,67.509398 9.75035934,65.6732726 7.44614191,63.3236193 C5.14192448,60.9739659 3.32486752,58.188657 1.99491652,54.9676091 C0.664965525,51.7465611 0,48.2376943 0,44.4409035 C0,40.6752339 0.664965525,37.1741473 1.99491652,33.9375387 C3.32486752,30.7009301 5.14192448,27.9000608 7.44614191,25.5348468 C9.75035934,23.1696329 12.4411501,21.3179471 15.5185948,19.9797339 C18.5960396,18.6415207 21.8822064,17.9724242 25.3771939,17.9724242 C26.4906413,17.9724242 27.6427327,18.0657865 28.8335028,18.2525139 C30.0242729,18.4392413 31.1840965,18.7426688 32.3130083,19.1628055 C33.4419202,19.5829422 34.5012258,20.1353359 35.4909568,20.8200031 C36.4806877,21.5046703 37.3157607,22.3449311 37.9962008,23.3408106 L37.9962008,0 L50.7543878,0 L50.7543878,69.8823871 Z M37.9962008,44.4409035 C37.9962008,42.6981142 37.663718,41.0098125 36.9987425,39.3759476 C36.333767,37.7420826 35.4291046,36.2949669 34.2847282,35.0345568 C33.1403517,33.7741467 31.8026885,32.7627217 30.2716984,32.0002514 C28.7407083,31.2377811 27.1092231,30.8565517 25.3771939,30.8565517 C23.6451647,30.8565517 22.0136795,31.1677594 20.4826894,31.7901841 C18.9516993,32.4126088 17.6217683,33.307331 16.4928564,34.4743773 C15.3639445,35.6414237 14.4747464,37.0651989 13.8252354,38.7457457 C13.1757245,40.4262924 12.8509739,42.3246594 12.8509739,44.4409035 C12.8509739,46.2770564 13.1757245,48.0198195 13.8252354,49.669245 C14.4747464,51.3186706 15.3639445,52.7657864 16.4928564,54.0106358 C17.6217683,55.2554853 18.9516993,56.2357895 20.4826894,56.951578 C22.0136795,57.6673664 23.6451647,58.0252553 25.3771939,58.0252553 C27.1092231,58.0252553 28.7407083,57.6440258 30.2716984,56.8815555 C31.8026885,56.1190852 33.1403517,55.1076602 34.2847282,53.8472502 C35.4291046,52.5868401 36.333767,51.1397243 36.9987425,49.5058594 C37.663718,47.8719945 37.9962008,46.1836927 37.9962008,44.4409035 Z" id="path-2"></path>
    </defs>
    <g id="Page-1" stroke="none" stroke-width="1" fill="none" fill-rule="evenodd">
        <g id="Desktop-Copy-9" transform="translate(-120.000000, -331.000000)">
            <g id="Group-2" transform="translate(122.000000, 146.000000)">
                <g id="Group-4" filter="url(#filter-1)" transform="translate(2.000000, 187.000000)">
                    <g id="Group">
                        <mask id="mask-3" fill="white">
                            <use xlink:href="#path-2"></use>
                        </mask>
                        <use id="Mask" fill="#FFB671" fill-rule="nonzero" xlink:href="#path-2"></use>
                        <g mask="url(#mask-3)">
                            <g transform="translate(-12.466182, -4.217822)">
                                <polygon id="Path" fill="#FF7171" points="43.3150685 7.02970297 23.1321696 71 6.98630137 30.135062"></polygon>
                                <polygon id="Path-Copy" fill="#FF8787" transform="translate(98.074964, 96.991909) rotate(-48.000000) translate(-98.074964, -96.991909) " points="116.337136 65.0846454 95.8885961 128.899172 79.812793 88.2234481"></polygon>
                                <polygon id="Path-2" fill="#FFCF71" points="51 91.3861386 31.4383562 44.3247368 0 66.7739332"></polygon>
                                <polygon id="Path-3" fill="#7971FF" points="79.3579291 67.3203899 57.7345824 56.6942876 45.4109589 50.6382369 72.5282346 7.02970297"></polygon>
                                <polygon id="Path-4" fill="#DA71FF" points="45.4109589 19.6831683 51 41.6499023 64.7579955 19.6831683"></polygon>
                                <polygon id="Path-5" fill="#719EFF" points="41.2412577 59.7524752 79.9174402 67.4825672 82.4383562 91.3861386 45.4109589 78.4441343 37.8897688 60.6395188"></polygon>
                                <polygon id="Path-6" fill="#FF9D71" points="31.4383562 44.3247368 45.4109589 50.6382369 51 41.6499023 36.9499548 26.7128713"></polygon>
                                <polygon id="Path-7" fill="#FFCF71" points="48.9041096 4.66518258 50.4623823 19.6831683 69.1643836 8.11789947 62.1587881 0"></polygon>
                            </g>
                        </g>
                    </g>
                </g>
            </g>
        </g>
    </g>
</svg>