<?xml version="1.0" encoding="UTF-8"?>
<svg width="190px" height="5px" viewBox="0 0 190 5" version="1.1" xmlns="http://www.w3.org/2000/svg" xmlns:xlink="http://www.w3.org/1999/xlink">
    <!-- Generator: Sketch 55 (78076) - https://sketchapp.com -->
    <title>Group 3</title>
    <desc>Created with Sketch.</desc>
    <defs>
        <rect id="path-1" x="0" y="0" width="190" height="5"></rect>
    </defs>
    <g id="Page-1" stroke="none" stroke-width="1" fill="none" fill-rule="evenodd">
        <g id="iPhone-XS" transform="translate(-93.000000, -3403.000000)">
            <g id="Group-3" transform="translate(93.000000, 3403.000000)">
                <mask id="mask-2" fill="white">
                    <use xlink:href="#path-1"></use>
                </mask>
                <use id="Mask" fill="#FFB671" xlink:href="#path-1"></use>
                <g mask="url(#mask-2)">
                    <g transform="translate(0.000000, -7.000000)">
                        <polygon id="Path-29" fill="#DA71FF" transform="translate(30.362043, 13.696232) rotate(24.000000) translate(-30.362043, -13.696232) " points="22.6759568 4.33358145 58.8500146 3.27260323 1.87407111 24.1198616"></polygon>
                        <polygon id="Path-30" fill="#7971FF" points="64.9074205 1.69491525 46.8926797 13.4373711 69.9516874 13.4373711 81.1888121 10.0498438 72.1907421 3.59202511"></polygon>
                        <polygon id="Path-31" fill="#FFCF71" points="91.3005968 12.9010257 81.1888121 10.0498438 75.9248249 5.49741068 135.808492 2.81804842 130.764225 12.9010257"></polygon>
                        <polygon id="Path-32" fill="#719EFF" points="160.638051 14.2830706 189.817705 5.49741068 155.817705 5.49741068"></polygon>
                        <polygon id="Path-33" fill="#FF7171" points="130.764225 12.9010257 155.817705 5.49741068 160.638051 14.2830706"></polygon>
                        <polygon id="Path-34" fill="#FF9D71" points="89.731973 4.85522266 108.718861 12.9010257 133.666713 7.06872081 89.731973 2.81804842"></polygon>
                    </g>
                </g>
            </g>
        </g>
    </g>
</svg>