<?xml version="1.0" encoding="UTF-8"?>
<svg width="110px" height="22px" viewBox="0 0 110 22" version="1.1" xmlns="http://www.w3.org/2000/svg" xmlns:xlink="http://www.w3.org/1999/xlink">
    <!-- Generator: Sketch 55 (78076) - https://sketchapp.com -->
    <title>vg</title>
    <desc>Created with Sketch.</desc>
    <g id="Page-1" stroke="none" stroke-width="1" fill="none" fill-rule="evenodd">
        <g id="Desktop-Copy-9" transform="translate(-690.000000, -2810.000000)" fill="#000000" fill-rule="nonzero">
            <g id="vg" transform="translate(690.000000, 2810.000000)">
                <path d="M104.783041,21.972792 L65.2656433,21.972792 C65.2656433,21.972792 60.4795337,22.2461556 60.4795337,17.9562711 L60.4795337,4.81222728 C60.4795337,-0.297491541 65.2656433,0.013347334 65.2656433,0.013347334 L105.190756,0.013347334 C110.086152,0.013347334 109.9999,4.83892195 109.9999,4.83892195 L109.9999,5.64386886 L94.3987183,5.64386886 L94.3987183,4.76474157 C94.3987183,4.76474157 94.2139284,2.53316999 91.5505991,2.53316999 L79.462473,2.53316999 C76.1754139,2.53316999 76.2637138,5.2727103 76.2637138,5.2727103 L76.2637138,16.3579279 C76.2637138,16.3579279 75.8974612,19.5081554 79.2467142,19.5081554 L91.4341457,19.5081554 C94.1957565,19.5081554 94.4632156,16.7827325 94.4632156,16.7827325 L94.4632156,12.6450589 L85.5871577,12.6450589 L85.5871577,10.0946914 L109.991966,10.0946914 L109.991966,17.3209894 C109.991966,17.3209894 109.991966,21.972792 104.782785,21.972792 M18.7886796,22 L0,0 L19.3678757,0 L29.1596929,14.8540427 L39.7234303,0 L58.8683807,0 L39.8493536,22 L18.7886796,22" id="Shape"></path>
            </g>
        </g>
    </g>
</svg>