<?xml version="1.0" encoding="UTF-8"?>
<svg width="111px" height="28px" viewBox="0 0 111 28" version="1.1" xmlns="http://www.w3.org/2000/svg" xmlns:xlink="http://www.w3.org/1999/xlink">
    <!-- Generator: Sketch 55 (78076) - https://sketchapp.com -->
    <title>Logo/Normal</title>
    <desc>Created with Sketch.</desc>
    <defs>
        <path d="M10.5676518,25.781517 C9.43162103,25.781517 8.36445658,25.5663629 7.36612648,25.1360482 C6.36779638,24.7057335 5.49283629,24.1147768 4.74121995,23.3631605 C3.98960361,22.6115442 3.39864695,21.7365841 2.96833225,20.738254 C2.53801755,19.7399239 2.32286343,18.6727594 2.32286343,17.5367286 L2.32286343,12.063153 L0.0336006808,12.063153 L0.0336006808,7.38135249 L2.32286343,7.38135249 L2.32286343,0.0144016896 L7.00466394,0.0144016896 L7.00466394,7.38135249 L14.1306397,7.38135249 L14.1306397,12.063153 L7.00466394,12.063153 L7.00466394,17.5367286 C7.00466394,18.0301561 7.09646303,18.4920203 7.28006397,18.922335 C7.46366491,19.3526497 7.71611241,19.7284522 8.03741406,20.0497539 C8.3587157,20.3710555 8.73738695,20.6263717 9.17343918,20.8157102 C9.60949141,21.0050487 10.0742243,21.0997165 10.5676518,21.0997165 L14.1306397,21.0997165 L14.1306397,25.781517 L10.5676518,25.781517 Z" id="path-1"></path>
        <filter x="-14.2%" y="-3.9%" width="128.4%" height="115.5%" filterUnits="objectBoundingBox" id="filter-2">
            <feOffset dx="0" dy="1" in="SourceAlpha" result="shadowOffsetOuter1"></feOffset>
            <feGaussianBlur stdDeviation="0.5" in="shadowOffsetOuter1" result="shadowBlurOuter1"></feGaussianBlur>
            <feColorMatrix values="0 0 0 0 0   0 0 0 0 0   0 0 0 0 0  0 0 0 0.215308129 0" type="matrix" in="shadowBlurOuter1"></feColorMatrix>
        </filter>
        <path d="M35.2159545,16.4007035 C35.2159545,17.8465609 34.9692445,19.1661728 34.4758169,20.3595789 C33.9823894,21.552985 33.3111086,22.5771186 32.4619542,23.4320105 C31.6127999,24.2869024 30.6173535,24.9495771 29.4755851,25.4200545 C28.3338168,25.8905319 27.1088727,26.125767 25.800716,26.125767 C24.5040344,26.125767 23.2848277,25.8847944 22.1430593,25.402842 C21.001291,24.9208895 20.0029759,24.2496086 19.148084,23.3889792 C18.2931922,22.5283498 17.6190426,21.5042162 17.125615,20.3165477 C16.6321875,19.1288791 16.3854775,17.8236108 16.3854775,16.4007035 L16.3854775,0.0144016896 L21.101703,0.0144016896 L21.101703,8.62065263 C21.3541543,8.29935099 21.6611075,8.01247883 22.0225718,7.76002754 C22.3840362,7.50757625 22.7741823,7.30102829 23.193022,7.14037747 C23.6118616,6.97972665 24.0450386,6.85637162 24.4925659,6.77030868 C24.9400931,6.68424574 25.3761388,6.64121491 25.800716,6.64121491 C27.1088727,6.64121491 28.3338168,6.88505625 29.4755851,7.37274624 C30.6173535,7.86043624 31.6127999,8.54032326 32.4619542,9.41242772 C33.3111086,10.2845322 33.9823894,11.3144032 34.4758169,12.5020718 C34.9692445,13.6897404 35.2159545,14.9892713 35.2159545,16.4007035 Z M30.4825165,16.4007035 C30.4825165,15.6892498 30.3591615,15.0265751 30.1124477,14.4126595 C29.865734,13.7987439 29.5300935,13.2680304 29.1055164,12.8205031 C28.6809392,12.3729758 28.1846503,12.0229918 27.6166349,11.7705405 C27.0486195,11.5180892 26.4433193,11.3918654 25.800716,11.3918654 C25.1581127,11.3918654 24.5528125,11.5324328 23.984797,11.8135717 C23.4167816,12.0947107 22.9204928,12.4676445 22.4959156,12.9323844 C22.0713385,13.3971242 21.7385668,13.9307064 21.4975905,14.533147 C21.2566143,15.1355876 21.136128,15.7581002 21.136128,16.4007035 C21.136128,17.1121571 21.2566143,17.7719631 21.4975905,18.3801412 C21.7385668,18.9883193 22.0713385,19.5161641 22.4959156,19.9636914 C22.9204928,20.4112187 23.4167816,20.7640714 23.984797,21.0222602 C24.5528125,21.2804491 25.1581127,21.4095415 25.800716,21.4095415 C26.4433193,21.4095415 27.0486195,21.2804491 27.6166349,21.0222602 C28.1846503,20.7640714 28.6809392,20.4112187 29.1055164,19.9636914 C29.5300935,19.5161641 29.865734,18.9883193 30.1124477,18.3801412 C30.3591615,17.7719631 30.4825165,17.1121571 30.4825165,16.4007035 Z" id="path-3"></path>
        <filter x="-10.6%" y="-3.8%" width="121.2%" height="115.3%" filterUnits="objectBoundingBox" id="filter-4">
            <feOffset dx="0" dy="1" in="SourceAlpha" result="shadowOffsetOuter1"></feOffset>
            <feGaussianBlur stdDeviation="0.5" in="shadowOffsetOuter1" result="shadowBlurOuter1"></feGaussianBlur>
            <feColorMatrix values="0 0 0 0 0   0 0 0 0 0   0 0 0 0 0  0 0 0 0.215308129 0" type="matrix" in="shadowBlurOuter1"></feColorMatrix>
        </filter>
        <path d="M18.8304771,25.7671153 L17.6944519,25.7671153 L15.8699267,23.2368775 C15.4223994,23.6385046 14.9490604,24.0143071 14.4498953,24.3642964 C13.9507303,24.7142857 13.4257542,25.0183702 12.8749514,25.276559 C12.3241486,25.5347478 11.7590104,25.7384271 11.17952,25.8876028 C10.6000295,26.0367786 10.0119416,26.1113654 9.41523853,26.1113654 C8.1185569,26.1113654 6.89935021,25.867524 5.75758188,25.379834 C4.61581355,24.892144 3.61749842,24.2151257 2.76260655,23.3487588 C1.90771468,22.4823919 1.2335651,21.4553895 0.740137581,20.267721 C0.24671006,19.0800524 0,17.7862589 0,16.3863018 C0,14.9978197 0.24671006,13.706895 0.740137581,12.5134889 C1.2335651,11.3200828 1.90771468,10.287343 2.76260655,9.41523853 C3.61749842,8.54313407 4.61581355,7.86037833 5.75758188,7.36695081 C6.89935021,6.87352328 8.1185569,6.62681322 9.41523853,6.62681322 C9.82834064,6.62681322 10.2557802,6.66123788 10.6975699,6.73008824 C11.1393597,6.79893859 11.5696679,6.91081873 11.9885076,7.06573202 C12.4073472,7.22064531 12.8003621,7.42432455 13.1675639,7.67677584 C13.5347658,7.92922713 13.8445878,8.23904906 14.097039,8.60625094 L14.097039,0 L18.8304771,0 L18.8304771,25.7671153 Z M14.097039,16.3863018 C14.097039,15.7436985 13.973684,15.1211859 13.7269703,14.5187453 C13.4802565,13.9163048 13.1446161,13.3827225 12.7200389,12.9179827 C12.2954617,12.4532428 11.7991729,12.080309 11.2311575,11.79917 C10.6631421,11.5180311 10.0578418,11.3774637 9.41523853,11.3774637 C8.77263525,11.3774637 8.16733498,11.4922126 7.59931958,11.7217138 C7.03130418,11.951215 6.53788406,12.2811179 6.11904442,12.7114326 C5.70020478,13.1417473 5.37030179,13.6667234 5.12932556,14.2863766 C4.88834933,14.9060297 4.76786302,15.6059978 4.76786302,16.3863018 C4.76786302,17.0633302 4.88834933,17.7059239 5.12932556,18.314102 C5.37030179,18.9222801 5.70020478,19.4558623 6.11904442,19.9148647 C6.53788406,20.373867 7.03130418,20.7353259 7.59931958,20.9992523 C8.16733498,21.2631786 8.77263525,21.3951398 9.41523853,21.3951398 C10.0578418,21.3951398 10.6631421,21.2545725 11.2311575,20.9734335 C11.7991729,20.6922946 12.2954617,20.3193608 12.7200389,19.8546209 C13.1446161,19.389881 13.4802565,18.8562988 13.7269703,18.2538582 C13.973684,17.6514177 14.097039,17.0289051 14.097039,16.3863018 Z" id="path-5"></path>
        <path d="M5.88667564,2.92612532 C5.88667564,3.33922743 5.81208888,3.72650485 5.66291312,4.0879692 C5.51373736,4.44943354 5.3071894,4.7621242 5.04326305,5.02605055 C4.7793367,5.2899769 4.46951477,5.49939358 4.11378795,5.65430687 C3.75806113,5.80922016 3.37365243,5.88667564 2.96055032,5.88667564 C2.55892327,5.88667564 2.1773833,5.80922016 1.81591895,5.65430687 C1.4544546,5.49939358 1.13889522,5.2899769 0.869231345,5.02605055 C0.599567467,4.7621242 0.387282067,4.44943354 0.232368775,4.0879692 C0.0774554839,3.72650485 0,3.33922743 0,2.92612532 C0,2.52449827 0.0774554839,2.14582701 0.232368775,1.7901002 C0.387282067,1.43437338 0.599567467,1.12455144 0.869231345,0.860625094 C1.13889522,0.596698746 1.4544546,0.387282067 1.81591895,0.232368775 C2.1773833,0.0774554839 2.55892327,0 2.96055032,0 C3.37365243,0 3.75806113,0.0774554839 4.11378795,0.232368775 C4.46951477,0.387282067 4.7793367,0.596698746 5.04326305,0.860625094 C5.3071894,1.12455144 5.51373736,1.43437338 5.66291312,1.7901002 C5.81208888,2.14582701 5.88667564,2.52449827 5.88667564,2.92612532 Z" id="path-7"></path>
        <filter x="-34.0%" y="-17.0%" width="168.0%" height="168.0%" filterUnits="objectBoundingBox" id="filter-9">
            <feOffset dx="0" dy="1" in="SourceAlpha" result="shadowOffsetOuter1"></feOffset>
            <feGaussianBlur stdDeviation="0.5" in="shadowOffsetOuter1" result="shadowBlurOuter1"></feGaussianBlur>
            <feColorMatrix values="0 0 0 0 0   0 0 0 0 0   0 0 0 0 0  0 0 0 0.223940122 0" type="matrix" in="shadowBlurOuter1"></feColorMatrix>
        </filter>
    </defs>
    <g id="Symbols" stroke="none" stroke-width="1" fill="none" fill-rule="evenodd">
        <g id="Header" transform="translate(-111.000000, -355.000000)">
            <g id="Logo/Normal" transform="translate(112.000000, 355.000000)">
                <g>
                    <g id="Path" fill-rule="nonzero">
                        <use fill="black" fill-opacity="1" filter="url(#filter-2)" xlink:href="#path-1"></use>
                        <use fill="#252525" xlink:href="#path-1"></use>
                    </g>
                    <g id="Combined-Shape" fill-rule="nonzero">
                        <use fill="black" fill-opacity="1" filter="url(#filter-4)" xlink:href="#path-3"></use>
                        <use fill="#252525" xlink:href="#path-3"></use>
                    </g>
                    <g id="Group-4" transform="translate(36.799505, 0.014402)">
                        <g id="Group">
                            <mask id="mask-6" fill="white">
                                <use xlink:href="#path-5"></use>
                            </mask>
                            <use id="Mask" fill="#FFB671" fill-rule="nonzero" xlink:href="#path-5"></use>
                            <g mask="url(#mask-6)">
                                <g transform="translate(-4.625101, -1.555200)">
                                    <polygon id="Path" fill="#FF7171" points="16.0704018 2.59200028 8.58230802 26.1792029 2.59200028 11.1114352"></polygon>
                                    <polygon id="Path-Copy" fill="#FF8787" transform="translate(36.378273, 35.786311) rotate(-48.000000) translate(-36.378273, -35.786311) " points="43.1174733 23.9927102 35.6293795 47.5799127 29.6390718 32.5121451"></polygon>
                                    <polygon id="Path-2" fill="#FFCF71" points="18.9216021 33.6960037 11.6640013 16.3434687 0 24.6209626"></polygon>
                                    <polygon id="Path-3" fill="#7971FF" points="29.4427285 24.8224527 21.4202116 20.9043839 16.8480018 18.6713898 26.9088312 2.59200028"></polygon>
                                    <polygon id="Path-4" fill="#DA71FF" points="16.8480018 7.25760079 18.9216021 15.3572006 24.0259808 7.25760079"></polygon>
                                    <polygon id="Path-5" fill="#719EFF" points="15.3009935 22.0320024 29.6503138 24.882251 30.5856033 33.6960037 16.8480018 28.9240128 14.0575515 22.3590741"></polygon>
                                    <polygon id="Path-6" fill="#FF9D71" points="11.6640013 16.3434687 16.8480018 18.6713898 18.9216021 15.3572006 13.7088694 9.84960108"></polygon>
                                    <polygon id="Path-7" fill="#FFCF71" points="18.144002 1.72015157 18.7221395 7.25760079 25.6608028 2.99324137 23.0616442 0"></polygon>
                                    <polygon id="Path-7-Copy" fill="#FFD787" points="28.7712031 19.3457535 29.3995658 24.8832027 36.288004 20.6188433 33.6888454 17.6256019"></polygon>
                                </g>
                            </g>
                        </g>
                        <g id="Group" transform="translate(22.307402, 20.323915)">
                            <mask id="mask-8" fill="white">
                                <use xlink:href="#path-7"></use>
                            </mask>
                            <g id="Mask" fill-rule="nonzero">
                                <use fill="black" fill-opacity="1" filter="url(#filter-9)" xlink:href="#path-7"></use>
                                <use fill="#FFB671" xlink:href="#path-7"></use>
                            </g>
                            <g mask="url(#mask-8)">
                                <g transform="translate(-26.932503, -21.879115)">
                                    <polygon id="Path" fill="#FF8787" points="16.0704018 2.59200028 8.58230802 26.1792029 2.59200028 11.1114352"></polygon>
                                    <polygon id="Path-Copy" fill="#FF7171" transform="translate(36.378273, 35.786311) rotate(-48.000000) translate(-36.378273, -35.786311) " points="43.1174733 23.9927102 35.6293795 47.5799127 29.6390718 32.5121451"></polygon>
                                    <polygon id="Path-2" fill="#FFD787" points="18.9216021 33.6960037 11.6640013 16.3434687 0 24.6209626"></polygon>
                                    <polygon id="Path-3" fill="#7971FF" points="29.4427285 24.8224527 16.8480018 18.6713898 26.9088312 2.59200028"></polygon>
                                    <polygon id="Path-4" fill="#E087FF" points="16.8480018 7.25760079 18.9216021 15.3572006 24.0259808 7.25760079"></polygon>
                                    <polygon id="Path-5" fill="#719EFF" points="15.3009935 22.0320024 29.4427285 24.8224527 30.5856033 33.6960037 16.8480018 28.9240128 14.0575515 22.3590741"></polygon>
                                    <polygon id="Path-6" fill="#FFAC87" points="11.6640013 16.3434687 16.8480018 18.6713898 18.9216021 15.3572006 13.7088694 9.84960108"></polygon>
                                    <polygon id="Path-7" fill="#FFD787" points="18.144002 1.72015157 18.7221395 7.25760079 25.6608028 2.99324137 23.0616442 0"></polygon>
                                    <polygon id="Path-7-Copy" fill="#FFCF71" points="28.7712031 19.3457535 29.4427285 24.8224527 36.288004 20.6188433 33.6888454 17.6256019"></polygon>
                                </g>
                            </g>
                        </g>
                    </g>
                    <text id="studio" font-family="Righteous-Regular, Righteous" font-size="13.9968015" font-weight="normal" fill="#7971FF">
                        <tspan x="68.4624082" y="25.937603">studio</tspan>
                    </text>
                </g>
            </g>
        </g>
    </g>
</svg>