<?xml version="1.0" encoding="UTF-8"?>
<svg width="60px" height="79px" viewBox="0 0 60 79" version="1.1" xmlns="http://www.w3.org/2000/svg" xmlns:xlink="http://www.w3.org/1999/xlink">
    <!-- Generator: Sketch 55 (78076) - https://sketchapp.com -->
    <title>Group</title>
    <desc>Created with Sketch.</desc>
    <defs>
        <filter x="-23.1%" y="-16.9%" width="146.2%" height="133.8%" filterUnits="objectBoundingBox" id="filter-1">
            <feOffset dx="0" dy="2" in="SourceAlpha" result="shadowOffsetOuter1"></feOffset>
            <feGaussianBlur stdDeviation="2" in="shadowOffsetOuter1" result="shadowBlurOuter1"></feGaussianBlur>
            <feColorMatrix values="0 0 0 0 0.14489923   0 0 0 0 0.14489923   0 0 0 0 0.14489923  0 0 0 0.22 0" type="matrix" in="shadowBlurOuter1" result="shadowMatrixOuter1"></feColorMatrix>
            <feMerge>
                <feMergeNode in="shadowMatrixOuter1"></feMergeNode>
                <feMergeNode in="SourceGraphic"></feMergeNode>
            </feMerge>
        </filter>
        <path d="M13.5805664,70.9257812 L0.82421875,70.9257812 L0.82421875,2.31982422 L3.88574219,2.31982422 L8.94189453,8.30371094 C10.086106,7.22134875 11.3385349,6.20085115 12.6992188,5.2421875 C14.0599026,4.28352385 15.4746834,3.45630231 16.9436035,2.76049805 C18.4125236,2.06469379 19.935539,1.51578977 21.5126953,1.11376953 C23.0898516,0.711749292 24.6824464,0.510742188 26.2905273,0.510742188 C29.785011,0.510742188 33.070704,1.13695663 36.1477051,2.3894043 C39.2247061,3.64185197 41.9151089,5.41226069 44.2189941,7.70068359 C46.5228794,9.98910649 48.3396743,12.7490887 49.6694336,15.9807129 C50.9991928,19.2123371 51.6640625,22.7918098 51.6640625,26.7192383 C51.6640625,30.8012899 50.9991928,34.4735351 49.6694336,37.736084 C48.3396743,40.9986328 46.5228794,43.7663461 44.2189941,46.0393066 C41.9151089,48.3122672 39.2247061,50.0517518 36.1477051,51.2578125 C33.070704,52.4638732 29.785011,53.0668945 26.2905273,53.0668945 C25.1772405,53.0668945 24.0717015,52.9431979 22.973877,52.6958008 C21.8760525,52.4484037 20.7937065,52.1159689 19.7268066,51.6984863 C18.6599068,51.2810038 17.608485,50.8094102 16.5725098,50.2836914 C15.5365345,49.7579726 14.5392301,49.2167997 13.5805664,48.6601562 L13.5805664,70.9257812 Z M38.9541016,26.7192383 C38.9541016,24.6163632 38.6216667,22.7299888 37.9567871,21.0600586 C37.2919075,19.3901284 36.3873755,17.9753476 35.2431641,16.8156738 C34.0989526,15.6560001 32.7537512,14.7669302 31.2075195,14.1484375 C29.6612878,13.5299448 28.0223068,13.2207031 26.2905273,13.2207031 C24.5587479,13.2207031 22.9274979,13.5299448 21.3967285,14.1484375 C19.8659591,14.7669302 18.5284888,15.6560001 17.3842773,16.8156738 C16.2400659,17.9753476 15.3355339,19.3901284 14.6706543,21.0600586 C14.0057747,22.7299888 13.6733398,24.6163632 13.6733398,26.7192383 C13.6733398,28.7293395 14.0057747,30.5693276 14.6706543,32.2392578 C15.3355339,33.909188 16.2400659,35.3316999 17.3842773,36.5068359 C18.5284888,37.681972 19.8659591,38.594235 21.3967285,39.2436523 C22.9274979,39.8930697 24.5587479,40.2177734 26.2905273,40.2177734 C28.0223068,40.2177734 29.6612878,39.8930697 31.2075195,39.2436523 C32.7537512,38.594235 34.0989526,37.681972 35.2431641,36.5068359 C36.3873755,35.3316999 37.2919075,33.909188 37.9567871,32.2392578 C38.6216667,30.5693276 38.9541016,28.7293395 38.9541016,26.7192383 Z" id="path-2"></path>
    </defs>
    <g id="Page-1" stroke="none" stroke-width="1" fill="none" fill-rule="evenodd">
        <g id="Desktop-Copy-13" transform="translate(-123.000000, -349.000000)">
            <g id="Group" filter="url(#filter-1)" transform="translate(127.000000, 351.000000)">
                <g>
                    <mask id="mask-3" fill="white">
                        <use xlink:href="#path-2"></use>
                    </mask>
                    <use id="Mask" fill="#FFB671" fill-rule="nonzero" xlink:href="#path-2"></use>
                    <g mask="url(#mask-3)">
                        <g transform="translate(-31.000000, -28.000000)">
                            <polygon id="Path" fill="#FF7171" points="43.3150685 7.02970297 39.709079 38.9406078 37.4435203 58.9894805 6.98630137 30.135062"></polygon>
                            <polygon id="Path-Copy" fill="#FF8787" transform="translate(98.074964, 96.991909) rotate(-48.000000) translate(-98.074964, -96.991909) " points="116.337136 65.0846454 95.8885961 128.899172 79.812793 88.2234481"></polygon>
                            <polygon id="Path-2" fill="#FFCF71" points="51 91.3861386 31.4383562 44.3247368 0 66.7739332"></polygon>
                            <polygon id="Path-3" fill="#7971FF" points="71.9469702 77.2906869 50.3236235 66.6645846 38 60.608534 65.1172757 17"></polygon>
                            <polygon id="Path-4" fill="#DA71FF" points="39.9491118 17.6094895 50.4801696 40.5325857 64.7579955 19.6831683"></polygon>
                            <polygon id="Path-5" fill="#719EFF" points="37.4435203 58.9894805 79.9174402 67.4825672 82.4383562 91.3861386 45.4109589 78.4441343 37.8897688 60.6395188"></polygon>
                            <path d="M38.6490899,47.822475 L44.5587769,50.1666142 L50.4801696,40.5325857 L44.5587769,26.4186676 C41.4856668,32.2533002 39.9491118,35.1706164 39.9491118,35.1706164 C39.9491118,35.1706164 39.5157711,39.3879026 38.6490899,47.822475 Z" id="Path-6" fill="#FF9D71"></path>
                            <polygon id="Path-7-Copy" fill="#FFD787" points="68.2235692 44.3247368 79.2415911 67.4851485 97.8082192 55.9198797 90.8026237 47.8019802"></polygon>
                        </g>
                    </g>
                </g>
            </g>
        </g>
    </g>
</svg>